<mxfile host="app.diagrams.net" modified="2024-05-07T23:45:43.101Z" agent="Mozilla/5.0 (X11; Linux x86_64) AppleWebKit/537.36 (KHTML, like Gecko) Chrome/124.0.0.0 Safari/537.36" etag="_G31WTOn67fHj3TEXxVL" version="24.3.1" type="google">
  <diagram name="Page-1" id="13e1069c-82ec-6db2-03f1-153e76fe0fe0">
    <mxGraphModel grid="1" page="1" gridSize="10" guides="1" tooltips="1" connect="1" arrows="1" fold="1" pageScale="1" pageWidth="1100" pageHeight="850" background="none" math="0" shadow="0">
      <root>
        <mxCell id="0" />
        <mxCell id="1" parent="0" />
        <mxCell id="7baba1c4bc27f4b0-2" value="TrheadedServer:QTCPServer" style="shape=umlLifeline;perimeter=lifelinePerimeter;whiteSpace=wrap;html=1;container=1;collapsible=0;recursiveResize=0;outlineConnect=0;rounded=1;shadow=0;comic=0;labelBackgroundColor=none;strokeWidth=1;fontFamily=Verdana;fontSize=12;align=center;" vertex="1" parent="1">
          <mxGeometry y="90" width="100" height="780" as="geometry" />
        </mxCell>
        <mxCell id="aC8UQ1M14Pr9P5sWpsuA-154" value="" style="html=1;points=[];perimeter=orthogonalPerimeter;rounded=0;shadow=0;comic=0;labelBackgroundColor=none;strokeWidth=1;fontFamily=Verdana;fontSize=12;align=center;" vertex="1" parent="7baba1c4bc27f4b0-2">
          <mxGeometry x="45" y="361" width="10" height="58" as="geometry" />
        </mxCell>
        <mxCell id="7baba1c4bc27f4b0-8" value="TCPController:QObject" style="shape=umlLifeline;perimeter=lifelinePerimeter;whiteSpace=wrap;html=1;container=1;collapsible=0;recursiveResize=0;outlineConnect=0;rounded=1;shadow=0;comic=0;labelBackgroundColor=none;strokeWidth=1;fontFamily=Verdana;fontSize=12;align=center;" vertex="1" parent="1">
          <mxGeometry x="-160" y="90" width="100" height="1540" as="geometry" />
        </mxCell>
        <mxCell id="7baba1c4bc27f4b0-9" value="" style="html=1;points=[];perimeter=orthogonalPerimeter;rounded=0;shadow=0;comic=0;labelBackgroundColor=none;strokeWidth=1;fontFamily=Verdana;fontSize=12;align=center;" vertex="1" parent="7baba1c4bc27f4b0-8">
          <mxGeometry x="44" y="350" width="10" height="410" as="geometry" />
        </mxCell>
        <mxCell id="aC8UQ1M14Pr9P5sWpsuA-22" value="alt" style="shape=umlFrame;whiteSpace=wrap;html=1;pointerEvents=0;" vertex="1" parent="7baba1c4bc27f4b0-8">
          <mxGeometry x="-380" y="320" width="230" height="360" as="geometry" />
        </mxCell>
        <mxCell id="aC8UQ1M14Pr9P5sWpsuA-85" value="" style="endArrow=none;dashed=1;html=1;strokeWidth=2;rounded=0;fontSize=12;startSize=8;endSize=8;curved=1;exitX=-0.008;exitY=0.578;exitDx=0;exitDy=0;exitPerimeter=0;entryX=0.997;entryY=0.576;entryDx=0;entryDy=0;entryPerimeter=0;" edge="1" parent="7baba1c4bc27f4b0-8" source="aC8UQ1M14Pr9P5sWpsuA-22" target="aC8UQ1M14Pr9P5sWpsuA-22">
          <mxGeometry width="50" height="50" relative="1" as="geometry">
            <mxPoint x="-40" y="840" as="sourcePoint" />
            <mxPoint x="10" y="790" as="targetPoint" />
          </mxGeometry>
        </mxCell>
        <mxCell id="aC8UQ1M14Pr9P5sWpsuA-86" value="valid Input" style="text;html=1;align=center;verticalAlign=middle;whiteSpace=wrap;rounded=0;fontSize=16;" vertex="1" parent="7baba1c4bc27f4b0-8">
          <mxGeometry x="-260" y="320" width="117" height="30" as="geometry" />
        </mxCell>
        <mxCell id="aC8UQ1M14Pr9P5sWpsuA-69" value="" style="endArrow=classic;html=1;rounded=0;fontSize=12;startSize=8;endSize=8;curved=1;exitX=-0.216;exitY=0.371;exitDx=0;exitDy=0;exitPerimeter=0;entryX=0.538;entryY=0.463;entryDx=0;entryDy=0;entryPerimeter=0;" edge="1" parent="7baba1c4bc27f4b0-8">
          <mxGeometry width="50" height="50" relative="1" as="geometry">
            <mxPoint x="-285.06000000000006" y="1359.2399999999998" as="sourcePoint" />
            <mxPoint x="-452.0999999999998" y="1361.54" as="targetPoint" />
          </mxGeometry>
        </mxCell>
        <mxCell id="aC8UQ1M14Pr9P5sWpsuA-152" value="responseReady(Data)" style="edgeLabel;html=1;align=center;verticalAlign=middle;resizable=0;points=[];fontSize=12;" connectable="0" vertex="1" parent="aC8UQ1M14Pr9P5sWpsuA-69">
          <mxGeometry x="-0.0027" y="1" relative="1" as="geometry">
            <mxPoint as="offset" />
          </mxGeometry>
        </mxCell>
        <mxCell id="aC8UQ1M14Pr9P5sWpsuA-65" value="" style="html=1;points=[[0,0,0,0,5],[0,1,0,0,-5],[1,0,0,0,5],[1,1,0,0,-5]];perimeter=orthogonalPerimeter;outlineConnect=0;targetShapes=umlLifeline;portConstraint=eastwest;newEdgeStyle={&quot;curved&quot;:0,&quot;rounded&quot;:0};" vertex="1" parent="7baba1c4bc27f4b0-8">
          <mxGeometry x="-280.9" y="1280" width="10" height="84" as="geometry" />
        </mxCell>
        <mxCell id="aC8UQ1M14Pr9P5sWpsuA-68" value="" style="endArrow=classic;html=1;rounded=0;fontSize=12;startSize=8;endSize=8;curved=1;exitX=-0.473;exitY=0.74;exitDx=0;exitDy=0;exitPerimeter=0;" edge="1" parent="7baba1c4bc27f4b0-8">
          <mxGeometry width="50" height="50" relative="1" as="geometry">
            <mxPoint x="41.36999999999975" y="1285.6" as="sourcePoint" />
            <mxPoint x="-267.9" y="1286" as="targetPoint" />
          </mxGeometry>
        </mxCell>
        <mxCell id="aC8UQ1M14Pr9P5sWpsuA-151" value="retriveResponse" style="edgeLabel;html=1;align=center;verticalAlign=middle;resizable=0;points=[];fontSize=12;" connectable="0" vertex="1" parent="aC8UQ1M14Pr9P5sWpsuA-68">
          <mxGeometry x="0.0808" y="-2" relative="1" as="geometry">
            <mxPoint as="offset" />
          </mxGeometry>
        </mxCell>
        <mxCell id="aC8UQ1M14Pr9P5sWpsuA-121" value="" style="html=1;points=[[0,0,0,0,5],[0,1,0,0,-5],[1,0,0,0,5],[1,1,0,0,-5]];perimeter=orthogonalPerimeter;outlineConnect=0;targetShapes=umlLifeline;portConstraint=eastwest;newEdgeStyle={&quot;curved&quot;:0,&quot;rounded&quot;:0};" vertex="1" parent="7baba1c4bc27f4b0-8">
          <mxGeometry x="44.099999999999994" y="1280" width="10" height="34" as="geometry" />
        </mxCell>
        <mxCell id="aC8UQ1M14Pr9P5sWpsuA-5" value="MainWindow:QMainWindow" style="shape=umlLifeline;perimeter=lifelinePerimeter;whiteSpace=wrap;html=1;container=1;collapsible=0;recursiveResize=0;outlineConnect=0;rounded=1;shadow=0;comic=0;labelBackgroundColor=none;strokeWidth=1;fontFamily=Verdana;fontSize=12;align=center;" vertex="1" parent="1">
          <mxGeometry x="-818" y="90" width="100" height="1580" as="geometry" />
        </mxCell>
        <mxCell id="aC8UQ1M14Pr9P5sWpsuA-93" value="" style="html=1;points=[[0,0,0,0,5],[0,1,0,0,-5],[1,0,0,0,5],[1,1,0,0,-5]];perimeter=orthogonalPerimeter;outlineConnect=0;targetShapes=umlLifeline;portConstraint=eastwest;newEdgeStyle={&quot;curved&quot;:0,&quot;rounded&quot;:0};" vertex="1" parent="aC8UQ1M14Pr9P5sWpsuA-5">
          <mxGeometry x="45" y="610" width="10" height="80" as="geometry" />
        </mxCell>
        <mxCell id="aC8UQ1M14Pr9P5sWpsuA-96" value="" style="html=1;points=[[0,0,0,0,5],[0,1,0,0,-5],[1,0,0,0,5],[1,1,0,0,-5]];perimeter=orthogonalPerimeter;outlineConnect=0;targetShapes=umlLifeline;portConstraint=eastwest;newEdgeStyle={&quot;curved&quot;:0,&quot;rounded&quot;:0};" vertex="1" parent="aC8UQ1M14Pr9P5sWpsuA-5">
          <mxGeometry x="45" y="920" width="10" height="75" as="geometry" />
        </mxCell>
        <mxCell id="aC8UQ1M14Pr9P5sWpsuA-67" value="" style="html=1;points=[[0,0,0,0,5],[0,1,0,0,-5],[1,0,0,0,5],[1,1,0,0,-5]];perimeter=orthogonalPerimeter;outlineConnect=0;targetShapes=umlLifeline;portConstraint=eastwest;newEdgeStyle={&quot;curved&quot;:0,&quot;rounded&quot;:0};" vertex="1" parent="aC8UQ1M14Pr9P5sWpsuA-5">
          <mxGeometry x="45" y="1434" width="10" height="80" as="geometry" />
        </mxCell>
        <mxCell id="aC8UQ1M14Pr9P5sWpsuA-102" value="" style="html=1;points=[[0,0,0,0,5],[0,1,0,0,-5],[1,0,0,0,5],[1,1,0,0,-5]];perimeter=orthogonalPerimeter;outlineConnect=0;targetShapes=umlLifeline;portConstraint=eastwest;newEdgeStyle={&quot;curved&quot;:0,&quot;rounded&quot;:0};" vertex="1" parent="aC8UQ1M14Pr9P5sWpsuA-5">
          <mxGeometry x="45" y="100" width="10" height="30" as="geometry" />
        </mxCell>
        <mxCell id="aC8UQ1M14Pr9P5sWpsuA-7" value="WindowManger:QObject" style="shape=umlLifeline;perimeter=lifelinePerimeter;whiteSpace=wrap;html=1;container=1;collapsible=0;recursiveResize=0;outlineConnect=0;rounded=1;shadow=0;comic=0;labelBackgroundColor=none;strokeWidth=1;fontFamily=Verdana;fontSize=12;align=center;" vertex="1" parent="1">
          <mxGeometry x="-660" y="90" width="100" height="1280" as="geometry" />
        </mxCell>
        <mxCell id="aC8UQ1M14Pr9P5sWpsuA-94" value="" style="html=1;points=[[0,0,0,0,5],[0,1,0,0,-5],[1,0,0,0,5],[1,1,0,0,-5]];perimeter=orthogonalPerimeter;outlineConnect=0;targetShapes=umlLifeline;portConstraint=eastwest;newEdgeStyle={&quot;curved&quot;:0,&quot;rounded&quot;:0};" vertex="1" parent="aC8UQ1M14Pr9P5sWpsuA-7">
          <mxGeometry x="45" y="590" width="10" height="80" as="geometry" />
        </mxCell>
        <mxCell id="aC8UQ1M14Pr9P5sWpsuA-95" value="" style="html=1;points=[[0,0,0,0,5],[0,1,0,0,-5],[1,0,0,0,5],[1,1,0,0,-5]];perimeter=orthogonalPerimeter;outlineConnect=0;targetShapes=umlLifeline;portConstraint=eastwest;newEdgeStyle={&quot;curved&quot;:0,&quot;rounded&quot;:0};" vertex="1" parent="aC8UQ1M14Pr9P5sWpsuA-7">
          <mxGeometry x="45" y="780" width="10" height="190" as="geometry" />
        </mxCell>
        <mxCell id="aC8UQ1M14Pr9P5sWpsuA-66" value="" style="html=1;points=[[0,0,0,0,5],[0,1,0,0,-5],[1,0,0,0,5],[1,1,0,0,-5]];perimeter=orthogonalPerimeter;outlineConnect=0;targetShapes=umlLifeline;portConstraint=eastwest;newEdgeStyle={&quot;curved&quot;:0,&quot;rounded&quot;:0};" vertex="1" parent="aC8UQ1M14Pr9P5sWpsuA-7">
          <mxGeometry x="45" y="1356" width="10" height="80" as="geometry" />
        </mxCell>
        <mxCell id="aC8UQ1M14Pr9P5sWpsuA-61" value="" style="endArrow=classic;html=1;rounded=0;fontSize=12;startSize=8;endSize=8;curved=1;exitX=-0.216;exitY=0.371;exitDx=0;exitDy=0;exitPerimeter=0;" edge="1" parent="aC8UQ1M14Pr9P5sWpsuA-7">
          <mxGeometry width="50" height="50" relative="1" as="geometry">
            <mxPoint x="44.999999999999886" y="1433.9999999999998" as="sourcePoint" />
            <mxPoint x="-98.84000000000003" y="1436.76" as="targetPoint" />
          </mxGeometry>
        </mxCell>
        <mxCell id="aC8UQ1M14Pr9P5sWpsuA-62" value="disconnected" style="edgeLabel;html=1;align=center;verticalAlign=middle;resizable=0;points=[];fontSize=12;" connectable="0" vertex="1" parent="aC8UQ1M14Pr9P5sWpsuA-61">
          <mxGeometry x="0.0498" y="-2" relative="1" as="geometry">
            <mxPoint as="offset" />
          </mxGeometry>
        </mxCell>
        <mxCell id="aC8UQ1M14Pr9P5sWpsuA-101" value="" style="html=1;points=[[0,0,0,0,5],[0,1,0,0,-5],[1,0,0,0,5],[1,1,0,0,-5]];perimeter=orthogonalPerimeter;outlineConnect=0;targetShapes=umlLifeline;portConstraint=eastwest;newEdgeStyle={&quot;curved&quot;:0,&quot;rounded&quot;:0};" vertex="1" parent="aC8UQ1M14Pr9P5sWpsuA-7">
          <mxGeometry x="45" y="100" width="10" height="60" as="geometry" />
        </mxCell>
        <mxCell id="aC8UQ1M14Pr9P5sWpsuA-9" value="AccountController:QObject" style="shape=umlLifeline;perimeter=lifelinePerimeter;whiteSpace=wrap;html=1;container=1;collapsible=0;recursiveResize=0;outlineConnect=0;rounded=1;shadow=0;comic=0;labelBackgroundColor=none;strokeWidth=1;fontFamily=Verdana;fontSize=12;align=center;" vertex="1" parent="1">
          <mxGeometry x="-481" y="93" width="101" height="1127" as="geometry" />
        </mxCell>
        <mxCell id="aC8UQ1M14Pr9P5sWpsuA-91" value="" style="html=1;points=[[0,0,0,0,5],[0,1,0,0,-5],[1,0,0,0,5],[1,1,0,0,-5]];perimeter=orthogonalPerimeter;outlineConnect=0;targetShapes=umlLifeline;portConstraint=eastwest;newEdgeStyle={&quot;curved&quot;:0,&quot;rounded&quot;:0};" vertex="1" parent="aC8UQ1M14Pr9P5sWpsuA-9">
          <mxGeometry x="45.5" y="100" width="10" height="280" as="geometry" />
        </mxCell>
        <mxCell id="aC8UQ1M14Pr9P5sWpsuA-92" value="" style="html=1;points=[[0,0,0,0,5],[0,1,0,0,-5],[1,0,0,0,5],[1,1,0,0,-5]];perimeter=orthogonalPerimeter;outlineConnect=0;targetShapes=umlLifeline;portConstraint=eastwest;newEdgeStyle={&quot;curved&quot;:0,&quot;rounded&quot;:0};" vertex="1" parent="aC8UQ1M14Pr9P5sWpsuA-9">
          <mxGeometry x="45.5" y="540" width="10" height="80" as="geometry" />
        </mxCell>
        <mxCell id="aC8UQ1M14Pr9P5sWpsuA-14" value="" style="endArrow=classic;html=1;rounded=0;fontSize=12;startSize=8;endSize=8;curved=1;exitX=1.171;exitY=0.012;exitDx=0;exitDy=0;exitPerimeter=0;endFill=1;" edge="1" parent="1">
          <mxGeometry width="50" height="50" relative="1" as="geometry">
            <mxPoint x="-762.29" y="194.70000000000005" as="sourcePoint" />
            <mxPoint x="-610.4999999999998" y="194.70000000000005" as="targetPoint" />
          </mxGeometry>
        </mxCell>
        <mxCell id="aC8UQ1M14Pr9P5sWpsuA-46" value="makeRequest( Data);" style="edgeLabel;html=1;align=center;verticalAlign=middle;resizable=0;points=[];fontSize=12;" connectable="0" vertex="1" parent="aC8UQ1M14Pr9P5sWpsuA-14">
          <mxGeometry x="-0.3903" y="2" relative="1" as="geometry">
            <mxPoint x="23" as="offset" />
          </mxGeometry>
        </mxCell>
        <mxCell id="aC8UQ1M14Pr9P5sWpsuA-15" value="" style="endArrow=classic;html=1;rounded=0;fontSize=12;startSize=8;endSize=8;curved=1;entryX=-0.216;entryY=0.066;entryDx=0;entryDy=0;entryPerimeter=0;exitX=1.135;exitY=0.075;exitDx=0;exitDy=0;exitPerimeter=0;endFill=1;" edge="1" parent="1">
          <mxGeometry width="50" height="50" relative="1" as="geometry">
            <mxPoint x="-604.6500000000001" y="234" as="sourcePoint" />
            <mxPoint x="-439.1600000000001" y="233.03999999999996" as="targetPoint" />
          </mxGeometry>
        </mxCell>
        <mxCell id="aC8UQ1M14Pr9P5sWpsuA-100" value="sendRequest(Data)" style="edgeLabel;html=1;align=center;verticalAlign=middle;resizable=0;points=[];fontSize=12;" connectable="0" vertex="1" parent="aC8UQ1M14Pr9P5sWpsuA-15">
          <mxGeometry x="-0.2829" relative="1" as="geometry">
            <mxPoint x="29" as="offset" />
          </mxGeometry>
        </mxCell>
        <mxCell id="aC8UQ1M14Pr9P5sWpsuA-16" value="RequestValidator:QObject" style="shape=umlLifeline;perimeter=lifelinePerimeter;whiteSpace=wrap;html=1;container=1;collapsible=0;recursiveResize=0;outlineConnect=0;rounded=1;shadow=0;comic=0;labelBackgroundColor=none;strokeWidth=1;fontFamily=Verdana;fontSize=12;align=center;" vertex="1" parent="1">
          <mxGeometry x="-331" y="93" width="100" height="370" as="geometry" />
        </mxCell>
        <mxCell id="aC8UQ1M14Pr9P5sWpsuA-17" value="" style="html=1;points=[];perimeter=orthogonalPerimeter;rounded=0;shadow=0;comic=0;labelBackgroundColor=none;strokeWidth=1;fontFamily=Verdana;fontSize=12;align=center;" vertex="1" parent="aC8UQ1M14Pr9P5sWpsuA-16">
          <mxGeometry x="44" y="100" width="10" height="210" as="geometry" />
        </mxCell>
        <mxCell id="aC8UQ1M14Pr9P5sWpsuA-53" value="" style="html=1;points=[[0,0,0,0,5],[0,1,0,0,-5],[1,0,0,0,5],[1,1,0,0,-5]];perimeter=orthogonalPerimeter;outlineConnect=0;targetShapes=umlLifeline;portConstraint=eastwest;newEdgeStyle={&quot;curved&quot;:0,&quot;rounded&quot;:0};" vertex="1" parent="aC8UQ1M14Pr9P5sWpsuA-16">
          <mxGeometry x="57" y="242" width="10" height="40" as="geometry" />
        </mxCell>
        <mxCell id="aC8UQ1M14Pr9P5sWpsuA-54" value="validateLogin(username,&lt;br&gt;password)" style="html=1;align=left;spacingLeft=2;endArrow=block;rounded=0;edgeStyle=orthogonalEdgeStyle;curved=0;rounded=0;fontSize=12;startSize=8;endSize=8;exitX=0.941;exitY=0.445;exitDx=0;exitDy=0;exitPerimeter=0;" edge="1" parent="aC8UQ1M14Pr9P5sWpsuA-16" source="aC8UQ1M14Pr9P5sWpsuA-17" target="aC8UQ1M14Pr9P5sWpsuA-53">
          <mxGeometry relative="1" as="geometry">
            <mxPoint x="62" y="222" as="sourcePoint" />
            <Array as="points">
              <mxPoint x="92" y="220" />
              <mxPoint x="92" y="252" />
            </Array>
          </mxGeometry>
        </mxCell>
        <mxCell id="aC8UQ1M14Pr9P5sWpsuA-55" value="Text" style="edgeLabel;html=1;align=center;verticalAlign=middle;resizable=0;points=[];fontSize=12;" connectable="0" vertex="1" parent="aC8UQ1M14Pr9P5sWpsuA-54">
          <mxGeometry x="-0.6393" y="1" relative="1" as="geometry">
            <mxPoint as="offset" />
          </mxGeometry>
        </mxCell>
        <mxCell id="aC8UQ1M14Pr9P5sWpsuA-58" value="" style="endArrow=block;html=1;rounded=0;fontSize=12;startSize=8;endSize=8;curved=1;exitX=1.135;exitY=0.075;exitDx=0;exitDy=0;exitPerimeter=0;endFill=1;" edge="1" parent="aC8UQ1M14Pr9P5sWpsuA-16" target="7baba1c4bc27f4b0-8">
          <mxGeometry width="50" height="50" relative="1" as="geometry">
            <mxPoint x="-98.49000000000012" y="358.96000000000004" as="sourcePoint" />
            <mxPoint x="215.4000000000001" y="356.49800000000005" as="targetPoint" />
          </mxGeometry>
        </mxCell>
        <mxCell id="aC8UQ1M14Pr9P5sWpsuA-109" value="makeTcpRequest(data)" style="edgeLabel;html=1;align=center;verticalAlign=middle;resizable=0;points=[];fontSize=12;" connectable="0" vertex="1" parent="aC8UQ1M14Pr9P5sWpsuA-58">
          <mxGeometry x="0.215" relative="1" as="geometry">
            <mxPoint x="12" as="offset" />
          </mxGeometry>
        </mxCell>
        <mxCell id="aC8UQ1M14Pr9P5sWpsuA-18" value="" style="endArrow=block;html=1;rounded=0;fontSize=12;startSize=8;endSize=8;curved=1;exitX=0.961;exitY=0.099;exitDx=0;exitDy=0;exitPerimeter=0;entryX=-0.174;entryY=0.388;entryDx=0;entryDy=0;entryPerimeter=0;endFill=1;" edge="1" parent="1" target="aC8UQ1M14Pr9P5sWpsuA-17">
          <mxGeometry width="50" height="50" relative="1" as="geometry">
            <mxPoint x="-427.3899999999999" y="274.55999999999995" as="sourcePoint" />
            <mxPoint x="-281.5" y="274.55999999999995" as="targetPoint" />
          </mxGeometry>
        </mxCell>
        <mxCell id="aC8UQ1M14Pr9P5sWpsuA-103" value="validateRequest(request)" style="edgeLabel;html=1;align=center;verticalAlign=middle;resizable=0;points=[];fontSize=12;" connectable="0" vertex="1" parent="aC8UQ1M14Pr9P5sWpsuA-18">
          <mxGeometry x="-0.1787" y="-1" relative="1" as="geometry">
            <mxPoint x="8" as="offset" />
          </mxGeometry>
        </mxCell>
        <mxCell id="aC8UQ1M14Pr9P5sWpsuA-24" value="" style="endArrow=classic;html=1;rounded=0;fontSize=12;startSize=8;endSize=8;curved=1;exitX=0.961;exitY=0.099;exitDx=0;exitDy=0;exitPerimeter=0;endFill=1;entryX=-0.233;entryY=0.314;entryDx=0;entryDy=0;entryPerimeter=0;" edge="1" parent="1" target="aC8UQ1M14Pr9P5sWpsuA-26">
          <mxGeometry width="50" height="50" relative="1" as="geometry">
            <mxPoint x="-107.38999999999987" y="554.56" as="sourcePoint" />
            <mxPoint x="38.5" y="554.56" as="targetPoint" />
          </mxGeometry>
        </mxCell>
        <mxCell id="aC8UQ1M14Pr9P5sWpsuA-111" value="socket-&amp;gt;write(daat)" style="edgeLabel;html=1;align=center;verticalAlign=middle;resizable=0;points=[];fontSize=12;" connectable="0" vertex="1" parent="aC8UQ1M14Pr9P5sWpsuA-24">
          <mxGeometry x="0.0359" y="-1" relative="1" as="geometry">
            <mxPoint as="offset" />
          </mxGeometry>
        </mxCell>
        <mxCell id="aC8UQ1M14Pr9P5sWpsuA-25" value="ClientHandler:QRunnable,QObject" style="shape=umlLifeline;perimeter=lifelinePerimeter;whiteSpace=wrap;html=1;container=1;collapsible=0;recursiveResize=0;outlineConnect=0;rounded=1;shadow=0;comic=0;labelBackgroundColor=none;strokeWidth=1;fontFamily=Verdana;fontSize=12;align=center;" vertex="1" parent="1">
          <mxGeometry x="183" y="84" width="147" height="823" as="geometry" />
        </mxCell>
        <mxCell id="aC8UQ1M14Pr9P5sWpsuA-26" value="" style="html=1;points=[];perimeter=orthogonalPerimeter;rounded=0;shadow=0;comic=0;labelBackgroundColor=none;strokeWidth=1;fontFamily=Verdana;fontSize=12;align=center;" vertex="1" parent="aC8UQ1M14Pr9P5sWpsuA-25">
          <mxGeometry x="45" y="360" width="10" height="351" as="geometry" />
        </mxCell>
        <mxCell id="aC8UQ1M14Pr9P5sWpsuA-27" value="" style="endArrow=classic;html=1;rounded=0;fontSize=12;startSize=8;endSize=8;curved=1;exitX=0.961;exitY=0.099;exitDx=0;exitDy=0;exitPerimeter=0;entryX=0.029;entryY=0;entryDx=0;entryDy=0;entryPerimeter=0;" edge="1" parent="1">
          <mxGeometry width="50" height="50" relative="1" as="geometry">
            <mxPoint x="53.61000000000013" y="502.55999999999995" as="sourcePoint" />
            <mxPoint x="228.28999999999996" y="500.9999999999998" as="targetPoint" />
          </mxGeometry>
        </mxCell>
        <mxCell id="aC8UQ1M14Pr9P5sWpsuA-35" value="Text" style="edgeLabel;html=1;align=center;verticalAlign=middle;resizable=0;points=[];fontSize=12;" connectable="0" vertex="1" parent="aC8UQ1M14Pr9P5sWpsuA-27">
          <mxGeometry x="0.273" y="3" relative="1" as="geometry">
            <mxPoint x="-1" as="offset" />
          </mxGeometry>
        </mxCell>
        <mxCell id="aC8UQ1M14Pr9P5sWpsuA-112" value="run" style="edgeLabel;html=1;align=center;verticalAlign=middle;resizable=0;points=[];fontSize=12;" connectable="0" vertex="1" parent="aC8UQ1M14Pr9P5sWpsuA-27">
          <mxGeometry x="-0.0495" relative="1" as="geometry">
            <mxPoint as="offset" />
          </mxGeometry>
        </mxCell>
        <mxCell id="aC8UQ1M14Pr9P5sWpsuA-29" value="RequestHandler" style="shape=umlLifeline;perimeter=lifelinePerimeter;whiteSpace=wrap;html=1;container=1;collapsible=0;recursiveResize=0;outlineConnect=0;rounded=1;shadow=0;comic=0;labelBackgroundColor=none;strokeWidth=1;fontFamily=Verdana;fontSize=12;align=center;" vertex="1" parent="1">
          <mxGeometry x="394" y="84" width="100" height="823" as="geometry" />
        </mxCell>
        <mxCell id="aC8UQ1M14Pr9P5sWpsuA-30" value="" style="html=1;points=[];perimeter=orthogonalPerimeter;rounded=0;shadow=0;comic=0;labelBackgroundColor=none;strokeWidth=1;fontFamily=Verdana;fontSize=12;align=center;" vertex="1" parent="aC8UQ1M14Pr9P5sWpsuA-29">
          <mxGeometry x="44" y="541" width="10" height="130" as="geometry" />
        </mxCell>
        <mxCell id="aC8UQ1M14Pr9P5sWpsuA-31" value="" style="endArrow=block;html=1;rounded=0;fontSize=12;startSize=8;endSize=8;curved=1;entryX=0.049;entryY=0.03;entryDx=0;entryDy=0;entryPerimeter=0;endFill=1;" edge="1" parent="1">
          <mxGeometry width="50" height="50" relative="1" as="geometry">
            <mxPoint x="240" y="634" as="sourcePoint" />
            <mxPoint x="438.4899999999998" y="633.8999999999999" as="targetPoint" />
          </mxGeometry>
        </mxCell>
        <mxCell id="aC8UQ1M14Pr9P5sWpsuA-113" value="handleRequest(data)" style="edgeLabel;html=1;align=center;verticalAlign=middle;resizable=0;points=[];fontSize=12;" connectable="0" vertex="1" parent="aC8UQ1M14Pr9P5sWpsuA-31">
          <mxGeometry x="0.1084" relative="1" as="geometry">
            <mxPoint as="offset" />
          </mxGeometry>
        </mxCell>
        <mxCell id="aC8UQ1M14Pr9P5sWpsuA-32" value="DataBaseManger" style="shape=umlLifeline;perimeter=lifelinePerimeter;whiteSpace=wrap;html=1;container=1;collapsible=0;recursiveResize=0;outlineConnect=0;rounded=1;shadow=0;comic=0;labelBackgroundColor=none;strokeWidth=1;fontFamily=Verdana;fontSize=12;align=center;" vertex="1" parent="1">
          <mxGeometry x="550" y="84" width="100" height="823" as="geometry" />
        </mxCell>
        <mxCell id="aC8UQ1M14Pr9P5sWpsuA-33" value="" style="html=1;points=[];perimeter=orthogonalPerimeter;rounded=0;shadow=0;comic=0;labelBackgroundColor=none;strokeWidth=1;fontFamily=Verdana;fontSize=12;align=center;" vertex="1" parent="aC8UQ1M14Pr9P5sWpsuA-32">
          <mxGeometry x="44" y="573" width="10" height="56" as="geometry" />
        </mxCell>
        <mxCell id="aC8UQ1M14Pr9P5sWpsuA-34" value="" style="endArrow=block;html=1;rounded=0;fontSize=12;startSize=8;endSize=8;curved=1;exitX=0.961;exitY=0.099;exitDx=0;exitDy=0;exitPerimeter=0;entryX=0.214;entryY=0;entryDx=0;entryDy=0;entryPerimeter=0;endFill=1;" edge="1" parent="1">
          <mxGeometry width="50" height="50" relative="1" as="geometry">
            <mxPoint x="449.6100000000001" y="657.56" as="sourcePoint" />
            <mxPoint x="596.1399999999999" y="659" as="targetPoint" />
          </mxGeometry>
        </mxCell>
        <mxCell id="aC8UQ1M14Pr9P5sWpsuA-114" value="loging(data):" style="edgeLabel;html=1;align=center;verticalAlign=middle;resizable=0;points=[];fontSize=12;" connectable="0" vertex="1" parent="aC8UQ1M14Pr9P5sWpsuA-34">
          <mxGeometry x="-0.4051" y="1" relative="1" as="geometry">
            <mxPoint x="29" as="offset" />
          </mxGeometry>
        </mxCell>
        <mxCell id="aC8UQ1M14Pr9P5sWpsuA-37" value="" style="endArrow=classic;html=1;rounded=0;fontSize=12;startSize=8;endSize=8;curved=1;exitX=-0.108;exitY=0.941;exitDx=0;exitDy=0;exitPerimeter=0;entryX=0.538;entryY=0.463;entryDx=0;entryDy=0;entryPerimeter=0;dashed=1;dashPattern=8 8;" edge="1" parent="1">
          <mxGeometry width="50" height="50" relative="1" as="geometry">
            <mxPoint x="436.9200000000001" y="751.3299999999997" as="sourcePoint" />
            <mxPoint x="238.80000000000018" y="750.54" as="targetPoint" />
          </mxGeometry>
        </mxCell>
        <mxCell id="aC8UQ1M14Pr9P5sWpsuA-116" value="data" style="edgeLabel;html=1;align=center;verticalAlign=middle;resizable=0;points=[];fontSize=12;" connectable="0" vertex="1" parent="aC8UQ1M14Pr9P5sWpsuA-37">
          <mxGeometry x="-0.0464" y="-2" relative="1" as="geometry">
            <mxPoint as="offset" />
          </mxGeometry>
        </mxCell>
        <mxCell id="aC8UQ1M14Pr9P5sWpsuA-38" value="" style="endArrow=classic;html=1;rounded=0;fontSize=12;startSize=8;endSize=8;curved=1;exitX=-0.335;exitY=0.202;exitDx=0;exitDy=0;exitPerimeter=0;" edge="1" parent="1">
          <mxGeometry width="50" height="50" relative="1" as="geometry">
            <mxPoint x="225" y="781" as="sourcePoint" />
            <mxPoint x="-110.67647058823513" y="781" as="targetPoint" />
          </mxGeometry>
        </mxCell>
        <mxCell id="aC8UQ1M14Pr9P5sWpsuA-117" value="ReadyRead" style="edgeLabel;html=1;align=center;verticalAlign=middle;resizable=0;points=[];fontSize=12;" connectable="0" vertex="1" parent="aC8UQ1M14Pr9P5sWpsuA-38">
          <mxGeometry x="-0.2297" y="2" relative="1" as="geometry">
            <mxPoint as="offset" />
          </mxGeometry>
        </mxCell>
        <mxCell id="aC8UQ1M14Pr9P5sWpsuA-41" value="" style="shape=umlLifeline;perimeter=lifelinePerimeter;whiteSpace=wrap;html=1;container=1;dropTarget=0;collapsible=0;recursiveResize=0;outlineConnect=0;portConstraint=eastwest;newEdgeStyle={&quot;curved&quot;:0,&quot;rounded&quot;:0};participant=umlActor;" vertex="1" parent="1">
          <mxGeometry x="-934" y="100" width="20" height="1110" as="geometry" />
        </mxCell>
        <mxCell id="aC8UQ1M14Pr9P5sWpsuA-161" value="" style="html=1;points=[[0,0,0,0,5],[0,1,0,0,-5],[1,0,0,0,5],[1,1,0,0,-5]];perimeter=orthogonalPerimeter;outlineConnect=0;targetShapes=umlLifeline;portConstraint=eastwest;newEdgeStyle={&quot;curved&quot;:0,&quot;rounded&quot;:0};" vertex="1" parent="aC8UQ1M14Pr9P5sWpsuA-41">
          <mxGeometry x="5" y="1040" width="10" height="31.5" as="geometry" />
        </mxCell>
        <mxCell id="aC8UQ1M14Pr9P5sWpsuA-42" value="" style="endArrow=classic;html=1;rounded=0;fontSize=12;startSize=8;endSize=8;curved=1;entryX=0.547;entryY=0.582;entryDx=0;entryDy=0;entryPerimeter=0;exitX=0.135;exitY=0.755;exitDx=0;exitDy=0;exitPerimeter=0;dashed=1;dashPattern=8 8;" edge="1" parent="1">
          <mxGeometry width="50" height="50" relative="1" as="geometry">
            <mxPoint x="595.3499999999999" y="714.2800000000002" as="sourcePoint" />
            <mxPoint x="448.6999999999998" y="716.9860000000001" as="targetPoint" />
          </mxGeometry>
        </mxCell>
        <mxCell id="aC8UQ1M14Pr9P5sWpsuA-115" value="data" style="edgeLabel;html=1;align=center;verticalAlign=middle;resizable=0;points=[];fontSize=12;" connectable="0" vertex="1" parent="aC8UQ1M14Pr9P5sWpsuA-42">
          <mxGeometry x="0.0706" y="1" relative="1" as="geometry">
            <mxPoint as="offset" />
          </mxGeometry>
        </mxCell>
        <mxCell id="aC8UQ1M14Pr9P5sWpsuA-43" value="" style="endArrow=classic;html=1;rounded=0;fontSize=12;startSize=8;endSize=8;curved=1;exitX=-0.473;exitY=0.74;exitDx=0;exitDy=0;exitPerimeter=0;" edge="1" parent="1">
          <mxGeometry width="50" height="50" relative="1" as="geometry">
            <mxPoint x="-120.73000000000025" y="843.5999999999999" as="sourcePoint" />
            <mxPoint x="-430" y="844" as="targetPoint" />
          </mxGeometry>
        </mxCell>
        <mxCell id="aC8UQ1M14Pr9P5sWpsuA-118" value="retriveResponse" style="edgeLabel;html=1;align=center;verticalAlign=middle;resizable=0;points=[];fontSize=12;" connectable="0" vertex="1" parent="aC8UQ1M14Pr9P5sWpsuA-43">
          <mxGeometry x="0.1286" y="1" relative="1" as="geometry">
            <mxPoint as="offset" />
          </mxGeometry>
        </mxCell>
        <mxCell id="aC8UQ1M14Pr9P5sWpsuA-44" value="" style="endArrow=block;html=1;rounded=0;fontSize=12;startSize=8;endSize=8;curved=1;exitX=-0.216;exitY=0.371;exitDx=0;exitDy=0;exitPerimeter=0;entryX=0.538;entryY=0.463;entryDx=0;entryDy=0;entryPerimeter=0;endFill=1;" edge="1" parent="1">
          <mxGeometry width="50" height="50" relative="1" as="geometry">
            <mxPoint x="-435.00000000000006" y="869.9999999999998" as="sourcePoint" />
            <mxPoint x="-602.0399999999998" y="872.3" as="targetPoint" />
          </mxGeometry>
        </mxCell>
        <mxCell id="aC8UQ1M14Pr9P5sWpsuA-119" value="&lt;span style=&quot;color: rgb(0, 0, 0); font-family: Helvetica; font-size: 12px; font-style: normal; font-variant-ligatures: normal; font-variant-caps: normal; font-weight: 400; letter-spacing: normal; orphans: 2; text-align: center; text-indent: 0px; text-transform: none; widows: 2; word-spacing: 0px; -webkit-text-stroke-width: 0px; white-space: nowrap; background-color: rgb(255, 255, 255); text-decoration-thickness: initial; text-decoration-style: initial; text-decoration-color: initial; display: inline !important; float: none;&quot;&gt;responseReady(Data)&lt;/span&gt;" style="edgeLabel;html=1;align=center;verticalAlign=middle;resizable=0;points=[];fontSize=12;" connectable="0" vertex="1" parent="aC8UQ1M14Pr9P5sWpsuA-44">
          <mxGeometry x="-0.2229" y="-3" relative="1" as="geometry">
            <mxPoint as="offset" />
          </mxGeometry>
        </mxCell>
        <mxCell id="aC8UQ1M14Pr9P5sWpsuA-49" value="" style="endArrow=open;html=1;rounded=0;fontSize=12;startSize=8;endSize=8;curved=1;exitX=1.171;exitY=0.012;exitDx=0;exitDy=0;exitPerimeter=0;endFill=0;" edge="1" parent="1">
          <mxGeometry width="50" height="50" relative="1" as="geometry">
            <mxPoint x="-922.29" y="164.70000000000005" as="sourcePoint" />
            <mxPoint x="-770.4999999999998" y="164.70000000000005" as="targetPoint" />
          </mxGeometry>
        </mxCell>
        <mxCell id="aC8UQ1M14Pr9P5sWpsuA-88" value="Presses Login" style="edgeLabel;html=1;align=center;verticalAlign=middle;resizable=0;points=[];fontSize=12;" connectable="0" vertex="1" parent="aC8UQ1M14Pr9P5sWpsuA-49">
          <mxGeometry x="-0.3998" y="2" relative="1" as="geometry">
            <mxPoint x="24" as="offset" />
          </mxGeometry>
        </mxCell>
        <mxCell id="aC8UQ1M14Pr9P5sWpsuA-56" value="" style="endArrow=classic;html=1;rounded=0;fontSize=12;startSize=8;endSize=8;curved=1;exitX=0.078;exitY=0.768;exitDx=0;exitDy=0;exitPerimeter=0;endFill=1;" edge="1" parent="1">
          <mxGeometry width="50" height="50" relative="1" as="geometry">
            <mxPoint x="-286.22" y="396.28" as="sourcePoint" />
            <mxPoint x="-431.67647058823536" y="396.28" as="targetPoint" />
          </mxGeometry>
        </mxCell>
        <mxCell id="aC8UQ1M14Pr9P5sWpsuA-105" value="return" style="edgeLabel;html=1;align=center;verticalAlign=middle;resizable=0;points=[];fontSize=12;" connectable="0" vertex="1" parent="aC8UQ1M14Pr9P5sWpsuA-56">
          <mxGeometry x="-0.0838" y="2" relative="1" as="geometry">
            <mxPoint as="offset" />
          </mxGeometry>
        </mxCell>
        <mxCell id="aC8UQ1M14Pr9P5sWpsuA-60" value="alt" style="shape=umlFrame;whiteSpace=wrap;html=1;pointerEvents=0;" vertex="1" parent="1">
          <mxGeometry x="-270" y="514" width="270" height="1146" as="geometry" />
        </mxCell>
        <mxCell id="aC8UQ1M14Pr9P5sWpsuA-63" value="" style="endArrow=none;dashed=1;html=1;rounded=0;fontSize=12;startSize=8;endSize=8;curved=1;exitX=-0.002;exitY=0.657;exitDx=0;exitDy=0;exitPerimeter=0;entryX=1.002;entryY=0.656;entryDx=0;entryDy=0;entryPerimeter=0;" edge="1" parent="1">
          <mxGeometry width="50" height="50" relative="1" as="geometry">
            <mxPoint x="-270.53999999999996" y="913.23" as="sourcePoint" />
            <mxPoint x="0.5399999999999636" y="912.8400000000001" as="targetPoint" />
          </mxGeometry>
        </mxCell>
        <mxCell id="aC8UQ1M14Pr9P5sWpsuA-72" value="" style="endArrow=block;html=1;rounded=0;fontSize=12;startSize=8;endSize=8;curved=1;exitX=-0.216;exitY=0.371;exitDx=0;exitDy=0;exitPerimeter=0;endFill=1;" edge="1" parent="1">
          <mxGeometry width="50" height="50" relative="1" as="geometry">
            <mxPoint x="-616.1600000000001" y="718.2399999999998" as="sourcePoint" />
            <mxPoint x="-760" y="721" as="targetPoint" />
          </mxGeometry>
        </mxCell>
        <mxCell id="aC8UQ1M14Pr9P5sWpsuA-73" value="delete" style="edgeLabel;html=1;align=center;verticalAlign=middle;resizable=0;points=[];fontSize=12;" connectable="0" vertex="1" parent="aC8UQ1M14Pr9P5sWpsuA-72">
          <mxGeometry x="0.0498" y="-2" relative="1" as="geometry">
            <mxPoint as="offset" />
          </mxGeometry>
        </mxCell>
        <mxCell id="aC8UQ1M14Pr9P5sWpsuA-108" value="failedLoginSlot(error)" style="edgeLabel;html=1;align=center;verticalAlign=middle;resizable=0;points=[];fontSize=12;" connectable="0" vertex="1" parent="aC8UQ1M14Pr9P5sWpsuA-72">
          <mxGeometry x="0.0128" y="2" relative="1" as="geometry">
            <mxPoint as="offset" />
          </mxGeometry>
        </mxCell>
        <mxCell id="aC8UQ1M14Pr9P5sWpsuA-77" value="" style="endArrow=classic;html=1;rounded=0;fontSize=12;startSize=8;endSize=8;curved=1;exitX=-0.216;exitY=0.371;exitDx=0;exitDy=0;exitPerimeter=0;entryX=0.538;entryY=0.463;entryDx=0;entryDy=0;entryPerimeter=0;" edge="1" parent="1">
          <mxGeometry width="50" height="50" relative="1" as="geometry">
            <mxPoint x="-439.1600000000001" y="688.2399999999998" as="sourcePoint" />
            <mxPoint x="-606.1999999999998" y="690.54" as="targetPoint" />
          </mxGeometry>
        </mxCell>
        <mxCell id="aC8UQ1M14Pr9P5sWpsuA-106" value="&lt;span style=&quot;color: rgba(0, 0, 0, 0); font-family: monospace; font-size: 0px; text-align: start; background-color: rgb(251, 251, 251);&quot;&gt;%3CmxGraphModel%3E%3Croot%3E%3CmxCell%20id%3D%220%22%2F%3E%3CmxCell%20id%3D%221%22%20parent%3D%220%22%2F%3E%3CmxCell%20id%3D%222%22%20value%3D%22responseReady(Data)%22%20style%3D%22edgeLabel%3Bhtml%3D1%3Balign%3Dcenter%3BverticalAlign%3Dmiddle%3Bresizable%3D0%3Bpoints%3D%5B%5D%3BfontSize%3D12%3B%22%20vertex%3D%221%22%20connectable%3D%220%22%20parent%3D%221%22%3E%3CmxGeometry%20x%3D%22-354.82000000000016%22%20y%3D%22394.28%22%20as%3D%22geometry%22%2F%3E%3C%2FmxCell%3E%3C%2Froot%3E%3C%2FmxGraphModel%3E&lt;/span&gt;&lt;span style=&quot;color: rgba(0, 0, 0, 0); font-family: monospace; font-size: 0px; text-align: start; background-color: rgb(251, 251, 251);&quot;&gt;%3CmxGraphModel%3E%3Croot%3E%3CmxCell%20id%3D%220%22%2F%3E%3CmxCell%20id%3D%221%22%20parent%3D%220%22%2F%3E%3CmxCell%20id%3D%222%22%20value%3D%22responseReady(Data)%22%20style%3D%22edgeLabel%3Bhtml%3D1%3Balign%3Dcenter%3BverticalAlign%3Dmiddle%3Bresizable%3D0%3Bpoints%3D%5B%5D%3BfontSize%3D12%3B%22%20vertex%3D%221%22%20connectable%3D%220%22%20parent%3D%221%22%3E%3CmxGeometry%20x%3D%22-354.82000000000016%22%20y%3D%22394.28%22%20as%3D%22geometry%22%2F%3E%3C%2FmxCell%3E%3C%2Froot%3E%3C%2FmxGraphModel%3E&lt;/span&gt;" style="edgeLabel;html=1;align=center;verticalAlign=middle;resizable=0;points=[];fontSize=12;" connectable="0" vertex="1" parent="aC8UQ1M14Pr9P5sWpsuA-77">
          <mxGeometry x="-0.0795" y="-1" relative="1" as="geometry">
            <mxPoint as="offset" />
          </mxGeometry>
        </mxCell>
        <mxCell id="aC8UQ1M14Pr9P5sWpsuA-107" value="responseReady(Data)" style="edgeLabel;html=1;align=center;verticalAlign=middle;resizable=0;points=[];fontSize=12;" connectable="0" vertex="1" parent="aC8UQ1M14Pr9P5sWpsuA-77">
          <mxGeometry x="-0.1176" relative="1" as="geometry">
            <mxPoint as="offset" />
          </mxGeometry>
        </mxCell>
        <mxCell id="aC8UQ1M14Pr9P5sWpsuA-83" value="host found" style="text;html=1;align=center;verticalAlign=middle;whiteSpace=wrap;rounded=0;fontSize=16;" vertex="1" parent="1">
          <mxGeometry x="-210" y="520" width="100" height="30" as="geometry" />
        </mxCell>
        <mxCell id="aC8UQ1M14Pr9P5sWpsuA-84" value="host not found" style="text;html=1;align=center;verticalAlign=middle;whiteSpace=wrap;rounded=0;fontSize=16;" vertex="1" parent="1">
          <mxGeometry x="-220" y="920" width="100" height="30" as="geometry" />
        </mxCell>
        <mxCell id="aC8UQ1M14Pr9P5sWpsuA-87" value="Invalid Input" style="text;html=1;align=center;verticalAlign=middle;whiteSpace=wrap;rounded=0;fontSize=16;" vertex="1" parent="1">
          <mxGeometry x="-540" y="630" width="117" height="30" as="geometry" />
        </mxCell>
        <mxCell id="aC8UQ1M14Pr9P5sWpsuA-90" value="&lt;span style=&quot;color: rgb(0, 0, 0); font-family: Helvetica; font-size: 12px; font-style: normal; font-variant-ligatures: normal; font-variant-caps: normal; font-weight: 400; letter-spacing: normal; orphans: 2; text-align: center; text-indent: 0px; text-transform: none; widows: 2; word-spacing: 0px; -webkit-text-stroke-width: 0px; white-space: nowrap; background-color: rgb(255, 255, 255); text-decoration-thickness: initial; text-decoration-style: initial; text-decoration-color: initial; display: inline !important; float: none;&quot;&gt;failedLoginSlot(error)&lt;/span&gt;" style="endArrow=block;html=1;rounded=0;fontSize=12;startSize=8;endSize=8;curved=1;exitX=-0.216;exitY=0.371;exitDx=0;exitDy=0;exitPerimeter=0;entryX=0.538;entryY=0.463;entryDx=0;entryDy=0;entryPerimeter=0;endFill=1;" edge="1" parent="1">
          <mxGeometry width="50" height="50" relative="1" as="geometry">
            <mxPoint x="-605" y="1015.9999999999998" as="sourcePoint" />
            <mxPoint x="-772.0399999999998" y="1018.3" as="targetPoint" />
          </mxGeometry>
        </mxCell>
        <mxCell id="aC8UQ1M14Pr9P5sWpsuA-98" value="" style="endArrow=none;dashed=1;html=1;rounded=0;fontSize=12;startSize=8;endSize=8;curved=1;" edge="1" parent="1">
          <mxGeometry width="50" height="50" relative="1" as="geometry">
            <mxPoint x="-768" y="1584" as="sourcePoint" />
            <mxPoint x="-768" y="1504" as="targetPoint" />
          </mxGeometry>
        </mxCell>
        <mxCell id="aC8UQ1M14Pr9P5sWpsuA-122" value="alt" style="shape=umlFrame;whiteSpace=wrap;html=1;pointerEvents=0;" vertex="1" parent="1">
          <mxGeometry x="-840" y="964" width="380" height="286" as="geometry" />
        </mxCell>
        <mxCell id="aC8UQ1M14Pr9P5sWpsuA-123" value="" style="html=1;points=[[0,0,0,0,5],[0,1,0,0,-5],[1,0,0,0,5],[1,1,0,0,-5]];perimeter=orthogonalPerimeter;outlineConnect=0;targetShapes=umlLifeline;portConstraint=eastwest;newEdgeStyle={&quot;curved&quot;:0,&quot;rounded&quot;:0};" vertex="1" parent="1">
          <mxGeometry x="-605" y="910" width="10" height="40" as="geometry" />
        </mxCell>
        <mxCell id="aC8UQ1M14Pr9P5sWpsuA-124" value="self call" style="html=1;align=left;spacingLeft=2;endArrow=block;rounded=0;edgeStyle=orthogonalEdgeStyle;curved=0;rounded=0;fontSize=12;startSize=8;endSize=8;" edge="1" parent="1" target="aC8UQ1M14Pr9P5sWpsuA-123">
          <mxGeometry relative="1" as="geometry">
            <mxPoint x="-600" y="890" as="sourcePoint" />
            <Array as="points">
              <mxPoint x="-570" y="920" />
            </Array>
          </mxGeometry>
        </mxCell>
        <mxCell id="aC8UQ1M14Pr9P5sWpsuA-125" value="&amp;nbsp;unsuccessful loging" style="text;html=1;align=center;verticalAlign=middle;whiteSpace=wrap;rounded=0;fontSize=16;" vertex="1" parent="1">
          <mxGeometry x="-770" y="964" width="150" height="30" as="geometry" />
        </mxCell>
        <mxCell id="aC8UQ1M14Pr9P5sWpsuA-126" value="AdminInterface:QDialog" style="shape=umlLifeline;perimeter=lifelinePerimeter;whiteSpace=wrap;html=1;container=1;collapsible=0;recursiveResize=0;outlineConnect=0;rounded=1;shadow=0;comic=0;labelBackgroundColor=none;strokeWidth=1;fontFamily=Verdana;fontSize=12;align=center;" vertex="1" parent="1">
          <mxGeometry x="-1078" y="100" width="100" height="1280" as="geometry" />
        </mxCell>
        <mxCell id="aC8UQ1M14Pr9P5sWpsuA-128" value="" style="html=1;points=[[0,0,0,0,5],[0,1,0,0,-5],[1,0,0,0,5],[1,1,0,0,-5]];perimeter=orthogonalPerimeter;outlineConnect=0;targetShapes=umlLifeline;portConstraint=eastwest;newEdgeStyle={&quot;curved&quot;:0,&quot;rounded&quot;:0};" vertex="1" parent="aC8UQ1M14Pr9P5sWpsuA-126">
          <mxGeometry x="45" y="1170" width="10" height="30" as="geometry" />
        </mxCell>
        <mxCell id="aC8UQ1M14Pr9P5sWpsuA-132" value="" style="endArrow=classic;html=1;rounded=0;fontSize=12;startSize=8;endSize=8;curved=1;exitX=0;exitY=1;exitDx=0;exitDy=-5;exitPerimeter=0;dashed=1;dashPattern=8 8;" edge="1" parent="1">
          <mxGeometry width="50" height="50" relative="1" as="geometry">
            <mxPoint x="-615" y="1280" as="sourcePoint" />
            <mxPoint x="-1028.1451612903227" y="1280" as="targetPoint" />
          </mxGeometry>
        </mxCell>
        <mxCell id="aC8UQ1M14Pr9P5sWpsuA-133" value="Create Admin" style="edgeLabel;html=1;align=center;verticalAlign=middle;resizable=0;points=[];fontSize=12;" connectable="0" vertex="1" parent="aC8UQ1M14Pr9P5sWpsuA-132">
          <mxGeometry x="-0.1711" y="-3" relative="1" as="geometry">
            <mxPoint as="offset" />
          </mxGeometry>
        </mxCell>
        <mxCell id="aC8UQ1M14Pr9P5sWpsuA-134" value="UserInterface:Qdialog" style="shape=umlLifeline;perimeter=lifelinePerimeter;whiteSpace=wrap;html=1;container=1;collapsible=0;recursiveResize=0;outlineConnect=0;rounded=1;shadow=0;comic=0;labelBackgroundColor=none;strokeWidth=1;fontFamily=Verdana;fontSize=12;align=center;" vertex="1" parent="1">
          <mxGeometry x="-1198" y="100" width="100" height="1280" as="geometry" />
        </mxCell>
        <mxCell id="aC8UQ1M14Pr9P5sWpsuA-135" value="" style="html=1;points=[[0,0,0,0,5],[0,1,0,0,-5],[1,0,0,0,5],[1,1,0,0,-5]];perimeter=orthogonalPerimeter;outlineConnect=0;targetShapes=umlLifeline;portConstraint=eastwest;newEdgeStyle={&quot;curved&quot;:0,&quot;rounded&quot;:0};" vertex="1" parent="aC8UQ1M14Pr9P5sWpsuA-134">
          <mxGeometry x="45" y="1240" width="10" height="30" as="geometry" />
        </mxCell>
        <mxCell id="aC8UQ1M14Pr9P5sWpsuA-141" value="" style="endArrow=none;dashed=1;html=1;strokeWidth=2;rounded=0;fontSize=12;startSize=8;endSize=8;curved=1;exitX=-0.008;exitY=0.578;exitDx=0;exitDy=0;exitPerimeter=0;entryX=1.002;entryY=0.549;entryDx=0;entryDy=0;entryPerimeter=0;" edge="1" parent="1" target="aC8UQ1M14Pr9P5sWpsuA-122">
          <mxGeometry width="50" height="50" relative="1" as="geometry">
            <mxPoint x="-840" y="1121" as="sourcePoint" />
            <mxPoint x="-609" y="1120" as="targetPoint" />
          </mxGeometry>
        </mxCell>
        <mxCell id="aC8UQ1M14Pr9P5sWpsuA-142" value="&amp;nbsp;successful loging" style="text;html=1;align=center;verticalAlign=middle;whiteSpace=wrap;rounded=0;fontSize=16;" vertex="1" parent="1">
          <mxGeometry x="-760" y="1119" width="150" height="30" as="geometry" />
        </mxCell>
        <mxCell id="aC8UQ1M14Pr9P5sWpsuA-143" value="" style="html=1;points=[[0,0,0,0,5],[0,1,0,0,-5],[1,0,0,0,5],[1,1,0,0,-5]];perimeter=orthogonalPerimeter;outlineConnect=0;targetShapes=umlLifeline;portConstraint=eastwest;newEdgeStyle={&quot;curved&quot;:0,&quot;rounded&quot;:0};" vertex="1" parent="1">
          <mxGeometry x="-615" y="1130" width="10" height="260" as="geometry" />
        </mxCell>
        <mxCell id="aC8UQ1M14Pr9P5sWpsuA-144" value="" style="html=1;points=[[0,0,0,0,5],[0,1,0,0,-5],[1,0,0,0,5],[1,1,0,0,-5]];perimeter=orthogonalPerimeter;outlineConnect=0;targetShapes=umlLifeline;portConstraint=eastwest;newEdgeStyle={&quot;curved&quot;:0,&quot;rounded&quot;:0};" vertex="1" parent="1">
          <mxGeometry x="-610" y="1158" width="10" height="40" as="geometry" />
        </mxCell>
        <mxCell id="aC8UQ1M14Pr9P5sWpsuA-145" value="IsAdmin" style="html=1;align=left;spacingLeft=2;endArrow=block;rounded=0;edgeStyle=orthogonalEdgeStyle;curved=0;rounded=0;fontSize=12;startSize=8;endSize=8;" edge="1" parent="1" target="aC8UQ1M14Pr9P5sWpsuA-144">
          <mxGeometry relative="1" as="geometry">
            <mxPoint x="-605" y="1138" as="sourcePoint" />
            <Array as="points">
              <mxPoint x="-575" y="1168" />
            </Array>
          </mxGeometry>
        </mxCell>
        <mxCell id="aC8UQ1M14Pr9P5sWpsuA-146" value="frame" style="shape=umlFrame;whiteSpace=wrap;html=1;pointerEvents=0;" vertex="1" parent="1">
          <mxGeometry x="-888" y="1210" width="348" height="200" as="geometry" />
        </mxCell>
        <mxCell id="aC8UQ1M14Pr9P5sWpsuA-147" value="" style="endArrow=none;dashed=1;html=1;strokeWidth=2;rounded=0;fontSize=12;startSize=8;endSize=8;curved=1;exitX=-0.008;exitY=0.578;exitDx=0;exitDy=0;exitPerimeter=0;entryX=0.997;entryY=0.556;entryDx=0;entryDy=0;entryPerimeter=0;" edge="1" parent="1" target="aC8UQ1M14Pr9P5sWpsuA-146">
          <mxGeometry width="50" height="50" relative="1" as="geometry">
            <mxPoint x="-890" y="1321" as="sourcePoint" />
            <mxPoint x="-590" y="1321" as="targetPoint" />
          </mxGeometry>
        </mxCell>
        <mxCell id="aC8UQ1M14Pr9P5sWpsuA-148" value="True admin" style="text;html=1;align=center;verticalAlign=middle;whiteSpace=wrap;rounded=0;fontSize=16;" vertex="1" parent="1">
          <mxGeometry x="-798" y="1210" width="88" height="30" as="geometry" />
        </mxCell>
        <mxCell id="aC8UQ1M14Pr9P5sWpsuA-149" value="" style="endArrow=classic;html=1;rounded=0;fontSize=12;startSize=8;endSize=8;curved=1;exitX=0;exitY=1;exitDx=0;exitDy=-5;exitPerimeter=0;dashed=1;dashPattern=8 8;entryX=1.185;entryY=0.415;entryDx=0;entryDy=0;entryPerimeter=0;" edge="1" parent="1" target="aC8UQ1M14Pr9P5sWpsuA-135">
          <mxGeometry width="50" height="50" relative="1" as="geometry">
            <mxPoint x="-615" y="1349" as="sourcePoint" />
            <mxPoint x="-1028.1451612903227" y="1349" as="targetPoint" />
          </mxGeometry>
        </mxCell>
        <mxCell id="aC8UQ1M14Pr9P5sWpsuA-150" value="Create USer" style="edgeLabel;html=1;align=center;verticalAlign=middle;resizable=0;points=[];fontSize=12;" connectable="0" vertex="1" parent="aC8UQ1M14Pr9P5sWpsuA-149">
          <mxGeometry x="-0.1711" y="-3" relative="1" as="geometry">
            <mxPoint as="offset" />
          </mxGeometry>
        </mxCell>
        <mxCell id="aC8UQ1M14Pr9P5sWpsuA-156" value="" style="endArrow=classic;html=1;rounded=0;fontSize=12;startSize=8;endSize=8;curved=1;exitX=1.172;exitY=0.058;exitDx=0;exitDy=0;exitPerimeter=0;" edge="1" parent="1" source="7baba1c4bc27f4b0-9" target="7baba1c4bc27f4b0-2">
          <mxGeometry width="50" height="50" relative="1" as="geometry">
            <mxPoint x="-170" y="440" as="sourcePoint" />
            <mxPoint x="-120" y="390" as="targetPoint" />
          </mxGeometry>
        </mxCell>
        <mxCell id="aC8UQ1M14Pr9P5sWpsuA-158" value="connectToHost" style="edgeLabel;html=1;align=center;verticalAlign=middle;resizable=0;points=[];fontSize=12;" connectable="0" vertex="1" parent="aC8UQ1M14Pr9P5sWpsuA-156">
          <mxGeometry x="-0.2221" y="3" relative="1" as="geometry">
            <mxPoint as="offset" />
          </mxGeometry>
        </mxCell>
        <mxCell id="aC8UQ1M14Pr9P5sWpsuA-157" value="" style="endArrow=classic;html=1;rounded=0;fontSize=12;startSize=8;endSize=8;curved=1;exitX=-0.044;exitY=0.494;exitDx=0;exitDy=0;exitPerimeter=0;" edge="1" parent="1">
          <mxGeometry width="50" height="50" relative="1" as="geometry">
            <mxPoint x="44.559999999999945" y="485.65199999999993" as="sourcePoint" />
            <mxPoint x="-110.1451612903229" y="485.65199999999993" as="targetPoint" />
          </mxGeometry>
        </mxCell>
        <mxCell id="aC8UQ1M14Pr9P5sWpsuA-159" value="State" style="edgeLabel;html=1;align=center;verticalAlign=middle;resizable=0;points=[];fontSize=12;" connectable="0" vertex="1" parent="aC8UQ1M14Pr9P5sWpsuA-157">
          <mxGeometry x="-0.191" relative="1" as="geometry">
            <mxPoint as="offset" />
          </mxGeometry>
        </mxCell>
        <mxCell id="aC8UQ1M14Pr9P5sWpsuA-160" value="run is in new thread" style="shape=note;strokeWidth=2;fontSize=14;size=20;whiteSpace=wrap;html=1;fillColor=#fff2cc;strokeColor=#d6b656;fontColor=#666600;" vertex="1" parent="1">
          <mxGeometry x="90" y="390" width="110.00000000000001" height="80" as="geometry" />
        </mxCell>
        <mxCell id="aC8UQ1M14Pr9P5sWpsuA-162" value="" style="shape=umlDestroy;whiteSpace=wrap;html=1;strokeWidth=3;targetShapes=umlLifeline;" vertex="1" parent="1">
          <mxGeometry x="-939" y="1180" width="30" height="30" as="geometry" />
        </mxCell>
        <mxCell id="aC8UQ1M14Pr9P5sWpsuA-163" value="" style="endArrow=classic;html=1;rounded=0;fontSize=12;startSize=8;endSize=8;curved=1;entryX=1.502;entryY=0.41;entryDx=0;entryDy=0;entryPerimeter=0;dashed=1;dashPattern=8 8;" edge="1" parent="1" source="aC8UQ1M14Pr9P5sWpsuA-143" target="aC8UQ1M14Pr9P5sWpsuA-161">
          <mxGeometry width="50" height="50" relative="1" as="geometry">
            <mxPoint x="-880" y="1300" as="sourcePoint" />
            <mxPoint x="-830" y="1250" as="targetPoint" />
          </mxGeometry>
        </mxCell>
        <mxCell id="aC8UQ1M14Pr9P5sWpsuA-164" value="delete" style="edgeLabel;html=1;align=center;verticalAlign=middle;resizable=0;points=[];fontSize=12;" connectable="0" vertex="1" parent="aC8UQ1M14Pr9P5sWpsuA-163">
          <mxGeometry x="0.1832" relative="1" as="geometry">
            <mxPoint x="-79" as="offset" />
          </mxGeometry>
        </mxCell>
      </root>
    </mxGraphModel>
  </diagram>
</mxfile>
